<svg width="134" height="71" viewBox="0 0 134 71" fill="none" xmlns="http://www.w3.org/2000/svg">
<path d="M2 63.5L10.5 55.5H20.5L39 51.5L48 36H73.5L82.5 21L94 26.5L112.5 21L132 2" stroke="#7E6FFF" stroke-width="4" stroke-linecap="round"/>
<path d="M9.92242 63.0431L5.67242 67.0431C4.35353 68.2844 5.23198 70.4995 7.04315 70.4995H130C131.105 70.4995 132 69.604 132 68.4995V13.7406C132 11.9713 129.871 11.0734 128.604 12.3082L112.853 27.6554C112.621 27.8814 112.338 28.0477 112.027 28.14L94.7381 33.2801C94.263 33.4213 93.7524 33.3811 93.3052 33.1672L84.1416 28.7846C83.211 28.3395 82.0945 28.6753 81.5637 29.5599L74.0826 42.0285C73.7211 42.6309 73.0701 42.9995 72.3676 42.9995H49.1514C48.4386 42.9995 47.7797 43.3788 47.4218 43.9952L39.4435 57.7356C39.161 58.2222 38.6866 58.5673 38.1366 58.6862L20.7089 62.4543C20.57 62.4843 20.4283 62.4995 20.2862 62.4995H11.2931C10.7837 62.4995 10.2934 62.6939 9.92242 63.0431Z" fill="url(#paint0_linear_984_2548)" fill-opacity="0.7"/>
<defs>
<linearGradient id="paint0_linear_984_2548" x1="67" y1="8.99951" x2="67" y2="70.4995" gradientUnits="userSpaceOnUse">
<stop stop-color="#7E6FFF"/>
<stop offset="1" stop-color="#4C4399"/>
</linearGradient>
</defs>
</svg>
