<svg width="1561" height="302" viewBox="0 0 1561 302" fill="none" xmlns="http://www.w3.org/2000/svg">
<path d="M1443.74 301.286C1408.61 301.286 1380.76 291.279 1360.18 271.267C1339.61 251.254 1328.53 222.798 1326.95 185.9C1326.63 182.773 1326.48 178.864 1326.48 174.174C1326.48 169.171 1326.63 165.262 1326.95 162.448C1328.22 138.995 1333.6 118.67 1343.09 101.471C1352.9 84.273 1366.35 71.1397 1383.45 62.0714C1400.54 52.6905 1420.63 48 1443.74 48C1469.37 48 1490.9 53.3159 1508.3 63.9476C1525.71 74.2667 1538.85 88.8071 1547.71 107.569C1556.57 126.018 1561 147.438 1561 171.829V181.679C1561 184.806 1559.89 187.463 1557.68 189.652C1555.46 191.841 1552.61 192.936 1549.13 192.936H1391.52C1391.52 192.936 1391.52 193.405 1391.52 194.343C1391.52 195.281 1391.52 196.063 1391.52 196.688C1391.83 207.633 1393.89 217.795 1397.69 227.176C1401.8 236.244 1407.66 243.593 1415.25 249.221C1423.17 254.85 1432.5 257.664 1443.26 257.664C1452.13 257.664 1459.56 256.413 1465.58 253.912C1471.59 251.098 1476.5 247.971 1480.29 244.531C1484.09 241.091 1486.78 238.277 1488.36 236.088C1491.21 232.336 1493.43 230.147 1495.01 229.521C1496.91 228.583 1499.6 228.114 1503.08 228.114H1543.91C1547.07 228.114 1549.61 229.052 1551.51 230.929C1553.72 232.805 1554.67 235.15 1554.35 237.964C1554.04 242.967 1551.35 249.065 1546.28 256.257C1541.54 263.449 1534.57 270.485 1525.39 277.364C1516.22 284.244 1504.66 290.029 1490.74 294.719C1477.13 299.097 1461.46 301.286 1443.74 301.286ZM1391.52 153.536H1496.43V152.129C1496.43 139.933 1494.38 129.302 1490.26 120.233C1486.15 111.165 1480.14 103.973 1472.22 98.6572C1464.31 93.3413 1454.82 90.6833 1443.74 90.6833C1432.66 90.6833 1423.17 93.3413 1415.25 98.6572C1407.34 103.973 1401.33 111.165 1397.21 120.233C1393.42 129.302 1391.52 139.933 1391.52 152.129V153.536Z" fill="#6B5AF9"/>
<path d="M1189.07 301.286C1170.23 301.286 1154.06 299.097 1140.56 294.719C1127.37 290.341 1116.54 284.869 1108.06 278.302C1099.59 271.736 1093.31 265.169 1089.22 258.602C1085.14 252.036 1082.94 246.563 1082.63 242.186C1082.32 238.746 1083.26 236.088 1085.46 234.212C1087.97 232.023 1090.64 230.929 1093.46 230.929H1130.67C1131.92 230.929 1133.02 231.085 1133.97 231.398C1134.91 231.71 1136.16 232.648 1137.73 234.212C1141.82 237.652 1146.05 241.248 1150.45 245C1155.16 248.752 1160.65 252.036 1166.93 254.85C1173.21 257.352 1181.06 258.602 1190.48 258.602C1202.73 258.602 1212.93 256.257 1221.09 251.567C1229.57 246.563 1233.81 239.528 1233.81 230.46C1233.81 223.893 1231.93 218.577 1228.16 214.512C1224.71 210.447 1218.11 206.851 1208.38 203.724C1198.65 200.284 1184.83 196.688 1166.93 192.936C1149.35 188.871 1134.75 183.711 1123.13 177.457C1111.52 171.203 1102.88 163.386 1097.23 154.005C1091.58 144.624 1088.75 133.679 1088.75 121.171C1088.75 108.976 1092.36 97.4063 1099.59 86.4619C1107.12 75.2048 1118.11 65.9802 1132.55 58.7881C1147.31 51.596 1165.52 48 1187.19 48C1204.14 48 1218.9 50.1889 1231.46 54.5667C1244.02 58.6318 1254.38 63.7913 1262.54 70.0453C1271.02 76.2992 1277.45 82.7095 1281.85 89.2762C1286.25 95.5302 1288.6 101.002 1288.91 105.693C1289.23 109.133 1288.29 111.947 1286.09 114.136C1283.89 116.012 1281.38 116.95 1278.55 116.95H1243.7C1242.13 116.95 1240.72 116.637 1239.46 116.012C1238.21 115.386 1236.95 114.605 1235.69 113.667C1232.24 110.54 1228.47 107.256 1224.39 103.817C1220.31 100.377 1215.29 97.4064 1209.32 94.9048C1203.67 92.0905 1196.13 90.6833 1186.71 90.6833C1174.78 90.6833 1165.68 93.3413 1159.4 98.6572C1153.12 103.66 1149.98 110.071 1149.98 117.888C1149.98 123.204 1151.39 127.894 1154.22 131.96C1157.36 135.712 1163.48 139.308 1172.59 142.748C1181.69 146.187 1195.51 149.783 1214.03 153.536C1235.07 157.288 1251.71 162.917 1263.95 170.421C1276.51 177.613 1285.3 186.056 1290.33 195.75C1295.66 205.131 1298.33 215.606 1298.33 227.176C1298.33 241.248 1294.09 253.912 1285.62 265.169C1277.45 276.426 1265.21 285.338 1248.88 291.905C1232.87 298.159 1212.93 301.286 1189.07 301.286Z" fill="#6B5AF9"/>
<path d="M895.142 301.286C875.836 301.286 859.062 297.144 844.819 288.86C830.894 280.27 820.133 268.305 812.537 252.965C804.941 237.318 801.143 218.91 801.143 197.741V68.4256C801.143 65.3576 802.251 62.7498 804.466 60.6022C806.682 58.4546 809.372 57.3809 812.537 57.3809H854.314C857.796 57.3809 860.486 58.4546 862.385 60.6022C864.6 62.7498 865.708 65.3576 865.708 68.4256V194.98C865.708 233.023 882.957 252.044 917.455 252.044C933.913 252.044 946.889 246.982 956.384 236.858C966.196 226.734 971.101 212.774 971.101 194.98V68.4256C971.101 65.3576 972.209 62.7498 974.425 60.6022C976.64 58.4546 979.33 57.3809 982.495 57.3809H1024.27C1027.44 57.3809 1030.13 58.4546 1032.34 60.6022C1034.56 62.7498 1035.67 65.3576 1035.67 68.4256V285.639C1035.67 288.707 1034.56 291.315 1032.34 293.462C1030.13 295.61 1027.44 296.684 1024.27 296.684H985.818C982.337 296.684 979.489 295.61 977.273 293.462C975.374 291.315 974.425 288.707 974.425 285.639V266.771C965.879 277.509 955.277 285.946 942.617 292.082C929.957 298.218 914.132 301.286 895.142 301.286Z" fill="#6B5AF9"/>
<path d="M390.33 301.286C387.183 301.286 384.508 300.171 382.305 297.941C380.102 295.711 379 293.003 379 289.817V64.2678C379 61.082 380.102 58.3742 382.305 56.1442C384.508 53.9141 387.183 52.7991 390.33 52.7991H427.152C430.299 52.7991 432.974 53.9141 435.177 56.1442C437.38 58.3742 438.481 61.082 438.481 64.2678V80.515C445.09 71.5949 453.902 64.1085 464.917 58.0556C476.247 51.6841 489.623 48.3391 505.044 48.0206C540.921 47.3834 565.941 61.5599 580.103 90.55C587.342 77.8071 597.728 67.6128 611.26 59.967C625.108 52.0027 640.372 48.0206 657.051 48.0206C673.417 48.0206 688.208 51.8434 701.426 59.4892C714.959 67.1349 725.502 78.7628 733.055 94.3729C740.923 109.664 744.857 129.097 744.857 152.672V289.817C744.857 293.003 743.756 295.711 741.553 297.941C739.35 300.171 736.675 301.286 733.527 301.286H694.817C691.67 301.286 688.995 300.171 686.792 297.941C684.589 295.711 683.488 293.003 683.488 289.817V156.494C683.488 142.159 681.442 130.849 677.351 122.567C673.259 113.965 667.752 107.912 660.828 104.408C653.904 100.904 646.194 99.1515 637.696 99.1515C630.773 99.1515 623.849 100.904 616.925 104.408C610.001 107.912 604.337 113.965 599.931 122.567C595.525 130.849 593.322 142.159 593.322 156.494V289.817C593.322 293.003 592.22 295.711 590.017 297.941C587.814 300.171 585.139 301.286 581.992 301.286H543.282C539.82 301.286 536.987 300.171 534.784 297.941C532.896 295.711 531.952 293.003 531.952 289.817V156.494C531.952 142.159 529.749 130.849 525.343 122.567C520.937 113.965 515.272 107.912 508.348 104.408C501.424 100.904 494.029 99.1515 486.161 99.1515C478.922 99.1515 471.841 101.063 464.917 104.886C457.994 108.39 452.329 114.284 447.923 122.567C443.517 130.849 441.314 142.159 441.314 156.494V289.817C441.314 293.003 440.212 295.711 438.009 297.941C435.806 300.171 433.131 301.286 429.984 301.286H390.33Z" fill="#6B5AF9"/>
<path d="M0 142.088C0 63.6152 63.5329 0 141.905 0H156.095C234.467 0 298 63.6152 298 142.088V301.227H141.905C63.5329 301.227 0 237.612 0 159.139V142.088Z" fill="#6B5AF9"/>
<path fill-rule="evenodd" clip-rule="evenodd" d="M110.147 90.804C106.328 82.4737 94.4253 82.4737 90.6061 90.804L37.5572 206.513C34.3162 213.583 39.5136 221.616 47.3279 221.616H153.426C161.24 221.616 166.437 213.583 163.196 206.513L110.147 90.804ZM114.326 190.257L100.377 160.233L86.428 190.257H114.326Z" fill="#F7F7FD"/>
<path fill-rule="evenodd" clip-rule="evenodd" d="M202.385 82.8374H164.803C157.39 82.8374 151.381 88.8118 151.381 96.1816V114.864C151.381 117.811 153.784 120.201 156.75 120.201H202.385C220.176 120.201 234.598 134.54 234.598 152.227C234.598 169.915 220.176 184.253 202.385 184.253H135.274V221.617H202.385C240.932 221.617 272.181 190.55 272.181 152.227C272.181 113.904 240.932 82.8374 202.385 82.8374Z" fill="#F7F7FD"/>
</svg>
