<svg width="24" height="24" viewBox="0 0 24 24" fill="none" xmlns="http://www.w3.org/2000/svg">
<path d="M12 0C5.37256 0 0 5.14868 0 11.5C0 14.788 1.44757 17.746 3.75604 19.8419L3 24L6.90179 21.899C8.45087 22.5979 10.1744 23 12 23C18.6274 23 24 17.8513 24 11.5C24 5.14868 18.6274 0 12 0Z" fill="#0377BD"/>
<path opacity="0.2" d="M12 0.25C18.5834 0.25 23.9227 5.33197 23.9934 11.625C23.9939 11.5829 24 11.5422 24 11.5C24 5.14868 18.6274 0 12 0C5.37256 0 0 5.14868 0 11.5C0 11.5414 0.0062256 11.5812 0.0067139 11.6225C0.0788574 5.33051 5.41748 0.25 12 0.25Z" fill="white"/>
<path opacity="0.1" d="M12 22.75C10.1744 22.75 8.45087 22.3479 6.90179 21.649L3.05042 23.7228L3 24L6.90179 21.899C8.45087 22.5979 10.1744 23 12 23C18.6274 23 24 17.8513 24 11.5C24 11.4578 23.9939 11.4171 23.9934 11.375C23.9227 17.668 18.5834 22.75 12 22.75Z" fill="#010101"/>
<path d="M5 14.5L10.6 8.5L13.8667 11.5L19 8.5L13.4 14.5L10.1333 11.5L5 14.5Z" fill="white"/>
<path d="M19 8.5L13.4 14.5L10.1334 11.5L5 14.5L13.4133 22.9133C18.7407 22.3133 22.9888 18.3718 23.8333 13.3333L19 8.5Z" fill="url(#paint0_linear_2001_558)"/>
<path d="M12 0C5.37256 0 0 5.14868 0 11.5C0 14.788 1.44757 17.746 3.75604 19.8419L3 24L6.90179 21.899C8.45087 22.5979 10.1744 23 12 23C18.6274 23 24 17.8513 24 11.5C24 5.14868 18.6274 0 12 0Z" fill="url(#paint1_linear_2001_558)"/>
<defs>
<linearGradient id="paint0_linear_2001_558" x1="10" y1="9.5" x2="20.303" y2="19.803" gradientUnits="userSpaceOnUse">
<stop stop-color="#010101" stop-opacity="0.1"/>
<stop offset="1" stop-color="#010101" stop-opacity="0"/>
</linearGradient>
<linearGradient id="paint1_linear_2001_558" x1="0.453357" y1="8.06807" x2="22.051" y2="18.1392" gradientUnits="userSpaceOnUse">
<stop stop-color="white" stop-opacity="0.2"/>
<stop offset="1" stop-color="white" stop-opacity="0"/>
</linearGradient>
</defs>
</svg>
