<svg width="24" height="24" viewBox="0 0 24 24" fill="none" xmlns="http://www.w3.org/2000/svg">
<path fill-rule="evenodd" clip-rule="evenodd" d="M13.3875 8.39325C13.8548 8.49281 14.2129 8.67037 14.5189 8.95687C14.9126 9.32869 15.1284 9.77869 15.2233 10.4252C15.2874 10.8467 15.2612 11.0124 15.1117 11.1499C14.9719 11.2778 14.7133 11.2824 14.5568 11.1617C14.4429 11.0764 14.4073 10.9864 14.3812 10.7424C14.3505 10.4179 14.2935 10.1906 14.1962 9.97988C13.9875 9.53231 13.6198 9.30019 12.9984 9.22444C12.7067 9.18881 12.6189 9.15581 12.5241 9.04444C12.3508 8.83838 12.4174 8.50444 12.6568 8.38125C12.747 8.33625 12.7849 8.33156 12.9842 8.34338C13.1077 8.3505 13.2904 8.37187 13.3875 8.39325ZM12.8824 6.60506C14.3222 6.81581 15.4369 7.48369 16.1676 8.56838C16.578 9.17944 16.8341 9.897 16.9219 10.6667C16.9526 10.9485 16.9526 11.4624 16.9194 11.5478C16.8885 11.6282 16.7889 11.7371 16.7036 11.7821C16.6112 11.8296 16.4143 11.8247 16.3052 11.7679C16.1226 11.6754 16.068 11.5286 16.068 11.1307C16.068 10.5174 15.909 9.87075 15.6339 9.36862C15.3208 8.79544 14.8654 8.32181 14.3104 7.99256C13.8336 7.70831 13.1291 7.49756 12.4864 7.44544C12.2539 7.4265 12.1258 7.37906 12.0381 7.27725C11.9029 7.12331 11.8886 6.91481 12.0024 6.74194C12.1256 6.55069 12.3154 6.51975 12.8824 6.60506ZM7.29638 5.14388C7.37944 5.17238 7.5075 5.23856 7.581 5.286C8.03156 5.5845 9.28631 7.18781 9.69675 7.98825C9.9315 8.44538 10.0099 8.784 9.93637 9.03506C9.86044 9.30506 9.73481 9.44719 9.1725 9.89944C8.94712 10.0817 8.736 10.2688 8.70281 10.3187C8.6175 10.4419 8.54869 10.6834 8.54869 10.854C8.55112 11.2494 8.80725 11.9672 9.144 12.519C9.40481 12.9476 9.87206 13.497 10.3346 13.9187C10.8778 14.4161 11.3569 14.7548 11.8978 15.0223C12.5929 15.3681 13.0174 15.4556 13.3281 15.3113C13.4062 15.2756 13.4893 15.2284 13.5154 15.207C13.539 15.1856 13.7218 14.9631 13.9209 14.7167C14.3051 14.2335 14.3929 14.1553 14.6563 14.0653C14.9908 13.9517 15.3323 13.9824 15.6763 14.1578C15.9373 14.2928 16.5066 14.6456 16.8741 14.9014C17.358 15.24 18.3921 16.0832 18.5321 16.2514C18.7787 16.5546 18.8214 16.9429 18.6555 17.3717C18.48 17.8239 17.7969 18.6718 17.3201 19.0343C16.8885 19.3611 16.5825 19.4865 16.1792 19.5054C15.8471 19.5219 15.7095 19.4936 15.285 19.3183C11.955 17.9471 9.29606 15.9009 7.185 13.0896C6.08212 11.6212 5.24231 10.0984 4.66838 8.51869C4.33388 7.5975 4.31738 7.19719 4.59244 6.72581C4.71112 6.52687 5.21625 6.03431 5.58394 5.75962C6.19594 5.30494 6.47812 5.13675 6.7035 5.08931C6.85763 5.05613 7.12575 5.08219 7.29638 5.14388ZM12.7187 4.88812C13.5347 4.98994 14.1939 5.18644 14.9175 5.5395C15.6291 5.88769 16.0845 6.21694 16.6869 6.816C17.2515 7.38206 17.5646 7.81069 17.8967 8.47613C18.3592 9.40444 18.6225 10.5082 18.6675 11.7231C18.6842 12.1374 18.6722 12.2299 18.5773 12.3484C18.3971 12.5781 18.0009 12.5402 17.8657 12.282C17.823 12.1967 17.8112 12.1234 17.7969 11.7917C17.7731 11.2824 17.7377 10.9534 17.6664 10.5602C17.3865 9.01838 16.6464 7.78688 15.4652 6.90338C14.4808 6.16444 13.4633 5.80444 12.1303 5.72625C11.6796 5.70019 11.6014 5.68369 11.4994 5.6055C11.3096 5.45625 11.3001 5.10581 11.4827 4.94231C11.5943 4.8405 11.6724 4.82625 12.0591 4.83806C12.261 4.84538 12.5574 4.86919 12.7187 4.88812ZM12 0C18.6274 0 24 5.37262 24 12C24 18.6274 18.6274 24 12 24C5.37262 24 0 18.6274 0 12C0 5.37262 5.37262 0 12 0Z" fill="#7F4DA0"/>
</svg>
