<svg width="24" height="24" viewBox="0 0 24 24" fill="none" xmlns="http://www.w3.org/2000/svg">
<path d="M19 17.9014C19 18.2078 18.9319 18.5228 18.7872 18.8292C18.6425 19.1357 18.4552 19.4251 18.2083 19.6975C17.7912 20.1572 17.3315 20.4892 16.8122 20.7021C16.3015 20.9149 15.7481 21.0255 15.1522 21.0255C14.2839 21.0255 13.356 20.8212 12.3771 20.4041C11.3981 19.987 10.4191 19.4251 9.44867 18.7186C8.4697 18.0035 7.54181 17.2118 6.65648 16.335C5.77967 15.4497 4.98798 14.5218 4.28142 13.5513C3.58337 12.5809 3.02153 11.6104 2.61292 10.6485C2.20431 9.67802 2 8.75013 2 7.8648C2 7.28593 2.10215 6.7326 2.30646 6.22183C2.51077 5.70255 2.83425 5.22584 3.28543 4.8002C3.83025 4.2639 4.42614 4 5.05608 4C5.29444 4 5.5328 4.05108 5.74562 4.15323C5.96695 4.25538 6.16274 4.40861 6.31597 4.62994L8.29094 7.41362C8.44417 7.62644 8.55483 7.82223 8.63145 8.00951C8.70806 8.18828 8.75063 8.36705 8.75063 8.52879C8.75063 8.7331 8.69104 8.93741 8.57186 9.1332C8.46119 9.32899 8.29945 9.5333 8.09514 9.73761L7.44817 10.4101C7.35453 10.5038 7.31197 10.6144 7.31197 10.7506C7.31197 10.8187 7.32048 10.8783 7.33751 10.9464C7.36305 11.0145 7.38858 11.0656 7.40561 11.1167C7.55884 11.3976 7.82273 11.7636 8.1973 12.2063C8.58037 12.649 8.98898 13.1002 9.43165 13.5513C9.89134 14.0025 10.334 14.4196 10.7852 14.8027C11.2278 15.1773 11.5939 15.4326 11.8833 15.5859C11.9259 15.6029 11.977 15.6284 12.0366 15.654C12.1047 15.6795 12.1728 15.688 12.2494 15.688C12.3941 15.688 12.5048 15.637 12.5984 15.5433L13.2454 14.9049C13.4582 14.692 13.6625 14.5303 13.8583 14.4281C14.0541 14.309 14.2499 14.2494 14.4627 14.2494C14.6244 14.2494 14.7947 14.2834 14.982 14.36C15.1693 14.4367 15.365 14.5473 15.5779 14.692L18.3956 16.6925C18.6169 16.8458 18.7702 17.0245 18.8638 17.2374C18.9489 17.4502 19 17.663 19 17.9014Z" stroke="white" stroke-width="1.5" stroke-miterlimit="10"/>
</svg>
