<svg width="39" height="38" viewBox="0 0 39 38" fill="none" xmlns="http://www.w3.org/2000/svg">
<path d="M38.1736 0.330818L37.2754 6.87808C34.9401 6.6987 33.2335 7.17704 32.1556 8.31309C31.0778 9.44915 30.4191 10.9739 30.1796 12.8872C29.9401 14.8006 29.8802 16.8634 29.9999 19.0757H38.1736V38H22.8143V15.4882C22.8143 9.98728 24.1916 5.86161 26.9461 3.11116C29.7604 0.360712 33.5029 -0.566066 38.1736 0.330818ZM15.3593 0.330818L14.4611 6.87808C12.1257 6.6987 10.4191 7.17704 9.3413 8.31309C8.26346 9.44915 7.60478 10.9739 7.36526 12.8872C7.12574 14.8006 7.06586 16.8634 7.18562 19.0757H15.3593V38H0V15.4882C0 9.98728 1.37724 5.86161 4.13173 3.11116C6.9461 0.360712 10.6886 -0.566066 15.3593 0.330818Z" fill="#7E6FFF"/>
</svg>
