<svg width="32" height="32" viewBox="0 0 32 32" fill="none" xmlns="http://www.w3.org/2000/svg">
<path fill-rule="evenodd" clip-rule="evenodd" d="M17.85 11.191C18.473 11.3237 18.9505 11.5605 19.3585 11.9425C19.8835 12.4383 20.1713 13.0382 20.2978 13.9003C20.3833 14.4623 20.3482 14.6832 20.149 14.8665C19.9625 15.037 19.6178 15.0433 19.409 14.8822C19.2572 14.7685 19.2097 14.6485 19.175 14.3232C19.134 13.8905 19.058 13.5875 18.9282 13.3065C18.65 12.7098 18.1597 12.4002 17.3312 12.2992C16.9422 12.2517 16.8252 12.2078 16.6987 12.0592C16.4677 11.7845 16.5565 11.3393 16.8757 11.175C16.996 11.115 17.0465 11.1088 17.3123 11.1245C17.477 11.134 17.7205 11.1625 17.85 11.191ZM17.1765 8.80675C19.0963 9.08775 20.5825 9.97825 21.5567 11.4245C22.104 12.2393 22.4455 13.196 22.5625 14.2222C22.6035 14.598 22.6035 15.2832 22.5592 15.397C22.518 15.5043 22.3853 15.6495 22.2715 15.7095C22.1483 15.7727 21.8857 15.7663 21.7402 15.6905C21.4967 15.5673 21.424 15.3715 21.424 14.841C21.424 14.0232 21.212 13.161 20.8452 12.4915C20.4277 11.7273 19.8205 11.0957 19.0805 10.6567C18.4447 10.2778 17.5055 9.99675 16.6485 9.92725C16.3385 9.902 16.1678 9.83875 16.0508 9.703C15.8705 9.49775 15.8515 9.21975 16.0033 8.98925C16.1675 8.73425 16.4205 8.693 17.1765 8.80675ZM9.7285 6.8585C9.83925 6.8965 10.01 6.98475 10.108 7.048C10.7087 7.446 12.3818 9.58375 12.929 10.651C13.242 11.2605 13.3465 11.712 13.2485 12.0468C13.1473 12.4067 12.9797 12.5963 12.23 13.1993C11.9295 13.4423 11.648 13.6918 11.6038 13.7583C11.49 13.9225 11.3982 14.2445 11.3982 14.472C11.4015 14.9993 11.743 15.9562 12.192 16.692C12.5398 17.2635 13.1628 17.996 13.7795 18.5583C14.5037 19.2215 15.1425 19.673 15.8638 20.0298C16.7905 20.4908 17.3565 20.6075 17.7708 20.415C17.875 20.3675 17.9858 20.3045 18.0205 20.276C18.052 20.2475 18.2958 19.9508 18.5613 19.6222C19.0735 18.978 19.1905 18.8738 19.5417 18.7537C19.9877 18.6022 20.443 18.6433 20.9018 18.877C21.2498 19.057 22.0088 19.5275 22.4988 19.8685C23.144 20.32 24.5227 21.4443 24.7095 21.6685C25.0382 22.0728 25.0953 22.5905 24.874 23.1623C24.64 23.7653 23.7292 24.8958 23.0935 25.379C22.518 25.8148 22.11 25.982 21.5723 26.0072C21.1295 26.0292 20.946 25.9915 20.38 25.7577C15.94 23.9295 12.3947 21.2013 9.58 17.4527C8.1095 15.495 6.98975 13.4645 6.2245 11.3582C5.7785 10.13 5.7565 9.59625 6.12325 8.96775C6.2815 8.7025 6.955 8.04575 7.44525 7.6795C8.26125 7.07325 8.6375 6.849 8.938 6.78575C9.1435 6.7415 9.501 6.77625 9.7285 6.8585ZM16.9583 6.5175C18.0462 6.65325 18.9252 6.91525 19.89 7.386C20.8387 7.85025 21.446 8.28925 22.2493 9.088C23.002 9.84275 23.4195 10.4143 23.8622 11.3015C24.479 12.5393 24.83 14.011 24.89 15.6307C24.9122 16.1833 24.8962 16.3065 24.7698 16.4645C24.5295 16.7708 24.0012 16.7202 23.821 16.376C23.764 16.2622 23.7482 16.1645 23.7292 15.7222C23.6975 15.0433 23.6502 14.6045 23.5553 14.0802C23.182 12.0245 22.1953 10.3825 20.6203 9.2045C19.3078 8.21925 17.951 7.73925 16.1737 7.635C15.5728 7.60025 15.4685 7.57825 15.3325 7.474C15.0795 7.275 15.0668 6.80775 15.3103 6.58975C15.459 6.454 15.5633 6.435 16.0788 6.45075C16.348 6.4605 16.7432 6.49225 16.9583 6.5175ZM16 0C24.8365 0 32 7.1635 32 16C32 24.8365 24.8365 32 16 32C7.1635 32 0 24.8365 0 16C0 7.1635 7.1635 0 16 0Z" fill="white"/>
</svg>
