<svg width="50" height="50" viewBox="0 0 50 50" fill="none" xmlns="http://www.w3.org/2000/svg">
<circle cx="24.7842" cy="24.7842" r="24.7842" fill="#DFE0F9"/>
<path d="M21.1393 16.9525C18.907 17.3436 17.3379 18.848 16.432 21.4656C15.9791 22.7594 15.7526 24.0381 15.7526 25.3017C15.7526 25.4522 15.7526 25.5876 15.7526 25.7079C15.785 25.7982 15.8173 26.0238 15.8497 26.3849H21.1393V36.2234H10.8027V27.1521C10.8027 22.6992 11.7571 19.2692 13.6659 16.8622C15.5747 14.4553 18.0658 13.0713 21.1393 12.7102V16.9525ZM37.4934 16.9525C35.714 17.2233 34.3552 18.156 33.417 19.7506C32.5111 21.3452 32.0582 23.1806 32.0582 25.2566C32.0582 25.4371 32.0582 25.6176 32.0582 25.7982C32.0906 25.9787 32.1391 26.1743 32.2038 26.3849H37.4934V36.2234H27.1083V27.1521C27.1083 23.5717 27.9171 20.3825 29.5347 17.5843C31.1523 14.7561 33.8052 13.1314 37.4934 12.7102V16.9525Z" fill="#7E6FFF"/>
</svg>
