<svg width="99" height="100" viewBox="0 0 99 100" fill="none" xmlns="http://www.w3.org/2000/svg">
<circle cx="42" cy="57.7993" r="42" fill="white"/>
<circle cx="41.5" cy="57.2993" r="33.5" fill="#9A8EFF"/>
<circle cx="42" cy="57.7993" r="24" fill="white"/>
<circle cx="41.5" cy="57.2993" r="12.5" fill="#9A8EFF"/>
<path d="M80.4316 1.04736C81.4534 0.0252129 82.99 -0.282634 84.3262 0.274902C85.6623 0.825305 86.5342 2.13378 86.5342 3.57764V11.9185H94.873C96.3162 11.9186 97.6165 12.791 98.1738 14.1274C98.724 15.464 98.4239 17.0008 97.4023 18.0229L87.877 27.5513C87.2053 28.2159 86.2979 28.5952 85.3477 28.5952H74.9072C74.8624 28.6454 74.8167 28.6955 74.7686 28.7437L43.8076 59.7153C42.4143 61.1091 40.1492 61.1091 38.7559 59.7153C37.3625 58.3215 37.3625 56.0555 38.7559 54.6616L69.7168 23.6899C69.7649 23.6418 69.814 23.5951 69.8643 23.5503V13.105C69.8644 12.1616 70.2428 11.2465 70.9072 10.5747L80.4316 1.04736Z" fill="#5042BC"/>
</svg>
