<svg width="97" height="97" viewBox="0 0 97 97" fill="none" xmlns="http://www.w3.org/2000/svg">
<rect width="97" height="97" fill="#3D3866"/>
<path d="M42.3962 9.01293L22.2283 16.6113C17.5804 18.3492 13.7812 23.8458 13.7812 28.7767V58.8063C13.7812 63.5754 16.9337 69.84 20.7733 72.7096L38.1525 85.6833C43.8512 89.9675 53.2279 89.9675 58.9267 85.6833L76.3058 72.7096C80.1454 69.84 83.2979 63.5754 83.2979 58.8063V28.7767C83.2979 23.8054 79.4987 18.3088 74.8508 16.5708L54.6829 9.01293C51.2475 7.76001 45.7508 7.76001 42.3962 9.01293Z" fill="#7E6FFF" stroke="white" stroke-linecap="round" stroke-linejoin="round"/>
<path d="M59.8577 59.595L37.5703 37.3076" stroke="white" stroke-width="4.9939" stroke-miterlimit="10" stroke-linecap="round" stroke-linejoin="round"/>
<path d="M59.592 37.5693L37.3047 59.8567" stroke="white" stroke-width="4.9939" stroke-miterlimit="10" stroke-linecap="round" stroke-linejoin="round"/>
</svg>
