<svg width="72" height="72" viewBox="0 0 72 72" fill="none" xmlns="http://www.w3.org/2000/svg">
<g filter="url(#filter0_d_568_2701)">
<g filter="url(#filter1_d_568_2701)">
<circle cx="36" cy="36" r="36" fill="white"/>
</g>
<path d="M36 20.1665V29.6665L39.1667 26.4998" stroke="#7E6FFF" stroke-width="1.5" stroke-linecap="round" stroke-linejoin="round"/>
<path d="M36 29.6667L32.8333 26.5" stroke="#7E6FFF" stroke-width="1.5" stroke-linecap="round" stroke-linejoin="round"/>
<path d="M28.0833 36C21.75 36 21.75 38.8342 21.75 42.3333V43.9167C21.75 48.2867 21.75 51.8333 29.6667 51.8333H42.3333C48.6667 51.8333 50.25 48.2867 50.25 43.9167V42.3333C50.25 38.8342 50.25 36 43.9167 36C42.3333 36 41.89 36.3325 41.0667 36.95L39.4517 38.66C37.5833 40.655 34.4167 40.655 32.5325 38.66L30.9333 36.95C30.11 36.3325 29.6667 36 28.0833 36Z" stroke="#7E6FFF" stroke-width="1.5" stroke-miterlimit="10" stroke-linecap="round" stroke-linejoin="round"/>
<path d="M24.9167 35.9998V29.6665C24.9167 26.484 24.9167 23.8557 29.6667 23.3965" stroke="#7E6FFF" stroke-width="1.5" stroke-miterlimit="10" stroke-linecap="round" stroke-linejoin="round"/>
<path d="M47.0833 35.9998V29.6665C47.0833 26.484 47.0833 23.8557 42.3333 23.3965" stroke="#7E6FFF" stroke-width="1.5" stroke-miterlimit="10" stroke-linecap="round" stroke-linejoin="round"/>
</g>
<defs>
<filter id="filter0_d_568_2701" x="0" y="0" width="72" height="72" filterUnits="userSpaceOnUse" color-interpolation-filters="sRGB">
<feFlood flood-opacity="0" result="BackgroundImageFix"/>
<feColorMatrix in="SourceAlpha" type="matrix" values="0 0 0 0 0 0 0 0 0 0 0 0 0 0 0 0 0 0 127 0" result="hardAlpha"/>
<feMorphology radius="50" operator="erode" in="SourceAlpha" result="effect1_dropShadow_568_2701"/>
<feOffset dx="5" dy="5"/>
<feGaussianBlur stdDeviation="7.5"/>
<feColorMatrix type="matrix" values="0 0 0 0 0 0 0 0 0 0 0 0 0 0 0 0 0 0 0.15 0"/>
<feBlend mode="multiply" in2="BackgroundImageFix" result="effect1_dropShadow_568_2701"/>
<feBlend mode="normal" in="SourceGraphic" in2="effect1_dropShadow_568_2701" result="shape"/>
</filter>
<filter id="filter1_d_568_2701" x="0" y="0" width="72" height="72" filterUnits="userSpaceOnUse" color-interpolation-filters="sRGB">
<feFlood flood-opacity="0" result="BackgroundImageFix"/>
<feColorMatrix in="SourceAlpha" type="matrix" values="0 0 0 0 0 0 0 0 0 0 0 0 0 0 0 0 0 0 127 0" result="hardAlpha"/>
<feMorphology radius="50" operator="erode" in="SourceAlpha" result="effect1_dropShadow_568_2701"/>
<feOffset dx="5" dy="5"/>
<feGaussianBlur stdDeviation="7.5"/>
<feColorMatrix type="matrix" values="0 0 0 0 0 0 0 0 0 0 0 0 0 0 0 0 0 0 0.15 0"/>
<feBlend mode="multiply" in2="BackgroundImageFix" result="effect1_dropShadow_568_2701"/>
<feBlend mode="normal" in="SourceGraphic" in2="effect1_dropShadow_568_2701" result="shape"/>
</filter>
</defs>
</svg>
