<svg width="48" height="48" viewBox="0 0 48 48" fill="none" xmlns="http://www.w3.org/2000/svg">
<g clip-path="url(#clip0_573_3927)">
<path d="M29.5081 13.8306H18.4911C17.879 13.8306 17.2729 13.9511 16.7074 14.1853C16.1419 14.4196 15.6281 14.7629 15.1952 15.1957C14.7624 15.6286 14.4191 16.1424 14.1849 16.7079C13.9506 17.2734 13.8301 17.8795 13.8301 18.4916V29.5086C13.8301 30.7448 14.3212 31.9303 15.1953 32.8044C15.6281 33.2373 16.1419 33.5806 16.7074 33.8148C17.2729 34.0491 17.879 34.1696 18.4911 34.1696H29.5081C30.7443 34.1696 31.9298 33.6785 32.8039 32.8044C33.678 31.9303 34.169 30.7447 34.169 29.5086V18.4916C34.1691 17.8795 34.0485 17.2734 33.8143 16.7079C33.58 16.1424 33.2367 15.6286 32.8039 15.1958C32.3711 14.7629 31.8573 14.4196 31.2918 14.1854C30.7263 13.9511 30.1202 13.8306 29.5081 13.8306ZM23.9996 30.4118C22.7315 30.4118 21.4919 30.0357 20.4375 29.3312C19.3831 28.6267 18.5613 27.6253 18.076 26.4537C17.5907 25.2822 17.4638 23.993 17.7112 22.7492C17.9585 21.5055 18.5692 20.3631 19.4659 19.4664C20.3626 18.5697 21.505 17.959 22.7488 17.7116C23.9925 17.4642 25.2817 17.5912 26.4532 18.0765C27.6248 18.5618 28.6262 19.3836 29.3307 20.438C30.0352 21.4924 30.4113 22.732 30.4113 24.0001C30.4113 24.8421 30.2454 25.6758 29.9232 26.4537C29.601 27.2316 29.1287 27.9384 28.5333 28.5338C27.938 29.1292 27.2311 29.6015 26.4532 29.9237C25.6753 30.2459 24.8416 30.4118 23.9996 30.4118ZM30.6785 18.8982C30.3768 18.8982 30.0819 18.8088 29.8311 18.6412C29.5802 18.4736 29.3847 18.2354 29.2692 17.9566C29.1537 17.6779 29.1235 17.3712 29.1823 17.0753C29.2412 16.7794 29.3865 16.5076 29.5998 16.2942C29.8131 16.0809 30.0849 15.9356 30.3808 15.8767C30.6767 15.8179 30.9834 15.8481 31.2622 15.9635C31.5409 16.079 31.7792 16.2745 31.9468 16.5253C32.1144 16.7762 32.2039 17.0711 32.2039 17.3728C32.2039 17.7774 32.0432 18.1653 31.7571 18.4514C31.4711 18.7375 31.0831 18.8982 30.6785 18.8982Z" fill="#6E3BFF"/>
<path d="M23.9997 19.8325C23.1754 19.8325 22.3696 20.0769 21.6843 20.5349C20.9989 20.9928 20.4647 21.6437 20.1493 22.4053C19.8338 23.1668 19.7513 24.0048 19.9121 24.8132C20.0729 25.6217 20.4699 26.3643 21.0527 26.9472C21.6356 27.53 22.3782 27.9269 23.1866 28.0878C23.9951 28.2486 24.833 28.166 25.5946 27.8506C26.3561 27.5351 27.007 27.001 27.465 26.3156C27.9229 25.6302 28.1673 24.8245 28.1673 24.0002C28.1673 22.8948 27.7283 21.8348 26.9467 21.0532C26.1651 20.2716 25.105 19.8325 23.9997 19.8325Z" fill="#6E3BFF"/>
<path d="M24 0C10.7452 0 0 10.7452 0 24C0 37.2548 10.7452 48 24 48C37.2548 48 48 37.2548 48 24C48 10.7452 37.2548 0 24 0ZM36.5 29.2969C36.4999 31.2072 35.741 33.0393 34.3901 34.3901C33.0393 35.741 31.2072 36.4999 29.2969 36.5H18.7031C16.7928 36.4999 14.9607 35.741 13.6098 34.3902C12.259 33.0393 11.5 31.2072 11.4999 29.2969V18.7031C11.5 16.7928 12.2589 14.9606 13.6098 13.6098C14.9606 12.259 16.7928 11.5001 18.7031 11.5H29.2969C31.2072 11.5001 33.0393 12.259 34.3901 13.6098C35.741 14.9607 36.4999 16.7928 36.5 18.7031V29.2969Z" fill="#6E3BFF"/>
</g>
<defs>
<clipPath id="clip0_573_3927">
<rect width="48" height="48" fill="white"/>
</clipPath>
</defs>
</svg>
