<svg width="48" height="48" viewBox="0 0 48 48" fill="none" xmlns="http://www.w3.org/2000/svg">
<g clip-path="url(#clip0_573_3933)">
<path d="M24 0C10.7452 0 0 10.7452 0 24C0 37.2548 10.7452 48 24 48C37.2548 48 48 37.2548 48 24C48 10.7452 37.2548 0 24 0ZM36.1519 21.7858C33.6034 21.7858 31.1237 20.9587 29.2144 19.5592L29.1992 29.0749C29.1976 30.8381 28.6583 32.5589 27.6533 34.0076C26.6483 35.4564 25.2254 36.5642 23.5745 37.1832C21.9235 37.8022 20.123 37.903 18.4133 37.4722C16.7035 37.0413 15.1658 36.0993 14.0054 34.7718C12.8449 33.4443 12.117 31.7944 11.9186 30.0424C11.7202 28.2904 12.0608 26.5196 12.895 24.9662C13.7292 23.4128 15.0173 22.1508 16.5874 21.3485C18.1575 20.5462 19.9349 20.2419 21.6825 20.476V25.149C20.8581 24.9055 19.978 24.9277 19.167 25.2124C18.3559 25.4972 17.6551 26.0301 17.164 26.7356C16.6728 27.441 16.4162 28.2832 16.4306 29.1427C16.445 30.0021 16.7297 30.8353 17.2442 31.5239C17.7587 32.2125 18.4769 32.7216 19.297 32.9791C20.1172 33.2365 20.9975 33.2293 21.8133 32.9582C22.629 32.6872 23.3388 32.1663 23.8418 31.4692C24.3448 30.7722 24.6156 29.9345 24.6157 29.0749V10.25H29.4228C29.4228 11.1336 29.5968 12.0086 29.935 12.825C30.2731 13.6413 30.7688 14.3831 31.3936 15.0079C32.0184 15.6327 32.7602 16.1284 33.5766 16.4665C34.393 16.8047 35.268 16.9787 36.1516 16.9787L36.1519 21.7858Z" fill="#6E3BFF"/>
</g>
<defs>
<clipPath id="clip0_573_3933">
<rect width="48" height="48" fill="white"/>
</clipPath>
</defs>
</svg>
