<svg width="48" height="48" viewBox="0 0 48 48" fill="none" xmlns="http://www.w3.org/2000/svg">
<g clip-path="url(#clip0_573_3938)">
<path fill-rule="evenodd" clip-rule="evenodd" d="M24 0C37.2459 0 48 10.7541 48 24C48 37.2459 37.2459 48 24 48C10.7541 48 0 37.2459 0 24C0 10.7541 10.7541 0 24 0ZM38.3733 16.7792C38.0283 15.4883 37.0118 14.472 35.7211 14.127C33.3813 13.5 24 13.5 24 13.5C24 13.5 14.6187 13.5 12.2789 14.127C10.9884 14.472 9.97172 15.4883 9.62672 16.7792C9 19.1187 9 24.0002 9 24.0002C9 24.0002 9 28.8815 9.62672 31.2208C9.97172 32.5117 10.9884 33.5284 12.2789 33.8733C14.6187 34.5 24 34.5 24 34.5C24 34.5 33.3813 34.5 35.7211 33.8733C37.0118 33.5284 38.0283 32.5117 38.3733 31.2208C39 28.8815 39 24.0002 39 24.0002C39 24.0002 39 19.1187 38.3733 16.7792ZM20.9999 28.5003V19.5001L28.794 24.0002L20.9999 28.5003Z" fill="#6E3BFF"/>
</g>
<defs>
<clipPath id="clip0_573_3938">
<rect width="48" height="48" fill="white"/>
</clipPath>
</defs>
</svg>
