<svg width="48" height="48" viewBox="0 0 48 48" fill="none" xmlns="http://www.w3.org/2000/svg">
<path d="M0 22.6415C0 10.1369 10.2335 0 22.8571 0H25.1429C37.7665 0 48 10.1369 48 22.6415V48H22.8571C10.2335 48 0 37.8631 0 25.3585V22.6415Z" fill="white"/>
<path fill-rule="evenodd" clip-rule="evenodd" d="M17.866 14.3203C17.25 12.9397 15.3302 12.9397 14.7142 14.3203L6.15799 33.4968C5.63526 34.6684 6.47353 35.9999 7.73389 35.9999H24.8462C26.1066 35.9999 26.9449 34.6684 26.4221 33.4968L17.866 14.3203ZM18.5398 30.8028L16.2901 25.8268L14.0403 30.8028H18.5398Z" fill="#6E3BFE"/>
<path fill-rule="evenodd" clip-rule="evenodd" d="M32.7428 13H26.6812C25.4856 13 24.5164 13.9901 24.5164 15.2115V18.3077C24.5164 18.7963 24.9041 19.1923 25.3823 19.1923H32.7428C35.6123 19.1923 37.9384 21.5686 37.9384 24.5C37.9384 27.4314 35.6123 29.8077 32.7428 29.8077H21.9186V36H32.7428C38.96 36 44 30.8513 44 24.5C44 18.1487 38.96 13 32.7428 13Z" fill="#6E3BFE"/>
</svg>
