<svg width="54" height="54" viewBox="0 0 54 54" fill="none" xmlns="http://www.w3.org/2000/svg">
<circle cx="27" cy="27" r="27" fill="white"/>
<path d="M41.0002 24.4486L39.615 30.3569C38.4277 35.4595 36.0813 37.5231 31.6713 37.0991C30.9646 37.0426 30.2013 36.9153 29.3815 36.7175L27.0069 36.1521C21.1128 34.7527 19.2894 31.841 20.6746 25.9327L22.0598 20.0103C22.3425 18.8089 22.6817 17.7629 23.1058 16.9007C24.7595 13.4801 27.5723 12.5614 32.2933 13.678L34.6537 14.2293C40.5762 15.6145 42.3854 18.5403 41.0002 24.4486Z" stroke="#7E6FFF" stroke-width="3" stroke-linecap="round" stroke-linejoin="round"/>
<path d="M31.6713 37.0992C30.795 37.6929 29.6925 38.1876 28.3497 38.6258L26.1164 39.3608C20.505 41.17 17.5509 39.6576 15.7275 34.0462L13.9183 28.463C12.109 22.8516 13.6073 19.8833 19.2187 18.0741L21.452 17.3391C22.0315 17.1553 22.5828 16.9998 23.1058 16.9009C22.6817 17.7631 22.3425 18.8091 22.0598 20.0105L20.6746 25.9329C19.2894 31.8412 21.1128 34.7529 27.0069 36.1522L29.3815 36.7176C30.2013 36.9155 30.9646 37.0427 31.6713 37.0992Z" stroke="#7E6FFF" stroke-width="3" stroke-linecap="round" stroke-linejoin="round"/>
<path d="M28.2508 21.749L35.1061 23.4876" stroke="#7E6FFF" stroke-width="3" stroke-linecap="round" stroke-linejoin="round"/>
<path d="M26.8656 27.219L30.9646 28.265" stroke="#7E6FFF" stroke-width="3" stroke-linecap="round" stroke-linejoin="round"/>
</svg>
