<svg width="54" height="54" viewBox="0 0 54 54" fill="none" xmlns="http://www.w3.org/2000/svg">
<circle cx="27" cy="27" r="27" fill="white"/>
<path d="M22.6394 28.7886H16.0385C14.4837 28.7886 13.2116 30.0607 13.2116 31.6155V40.0963H22.6394V28.7886Z" stroke="#7E6FFF" stroke-width="3" stroke-miterlimit="10" stroke-linecap="round" stroke-linejoin="round"/>
<path d="M29.2261 23.1345H25.4521C23.8973 23.1345 22.6252 24.4066 22.6252 25.9614V40.0961H32.053V25.9614C32.053 24.4066 30.795 23.1345 29.2261 23.1345Z" stroke="#7E6FFF" stroke-width="3" stroke-miterlimit="10" stroke-linecap="round" stroke-linejoin="round"/>
<path d="M38.6539 33.0288H32.053V40.0961H41.4808V35.8557C41.4808 34.3009 40.2087 33.0288 38.6539 33.0288Z" stroke="#7E6FFF" stroke-width="3" stroke-miterlimit="10" stroke-linecap="round" stroke-linejoin="round"/>
<path d="M28.0812 11.9258L28.8303 13.424C28.9293 13.636 29.1978 13.8339 29.424 13.8622L30.7809 14.0884C31.6431 14.2297 31.8551 14.8657 31.2332 15.4735L30.1731 16.5336C29.9894 16.7174 29.8904 17.0566 29.947 17.2969L30.2438 18.5973C30.4841 19.6291 29.9328 20.0249 29.0282 19.4878L27.7561 18.7387C27.5299 18.5973 27.1483 18.5973 26.9222 18.7387L25.65 19.4878C24.7454 20.0249 24.1942 19.6291 24.4345 18.5973L24.7313 17.2969C24.7878 17.0566 24.6889 16.7032 24.5051 16.5336L23.4592 15.4877C22.8372 14.8657 23.0351 14.2438 23.9115 14.1025L25.2684 13.8763C25.4946 13.8339 25.7631 13.6361 25.8621 13.4382L26.6112 11.9399C27.0211 11.1201 27.6713 11.1201 28.0812 11.9258Z" stroke="#7E6FFF" stroke-width="3" stroke-linecap="round" stroke-linejoin="round"/>
</svg>
