<svg width="54" height="54" viewBox="0 0 54 54" fill="none" xmlns="http://www.w3.org/2000/svg">
<circle cx="27" cy="27" r="27" fill="white"/>
<path d="M23.8125 29.1277C23.8125 30.4987 24.8726 31.6012 26.173 31.6012H28.8303C29.961 31.6012 30.8798 30.6401 30.8798 29.4386C30.8798 28.1524 30.3144 27.6859 29.4805 27.3891L25.226 25.905C24.392 25.6082 23.8266 25.1558 23.8266 23.8555C23.8266 22.6682 24.7454 21.6929 25.8761 21.6929H28.5335C29.8338 21.6929 30.894 22.7954 30.894 24.1664" stroke="#7E6FFF" stroke-width="3" stroke-linecap="round" stroke-linejoin="round"/>
<path d="M27.3462 20.2935V33.0146" stroke="#7E6FFF" stroke-width="3" stroke-linecap="round" stroke-linejoin="round"/>
<path d="M41.4808 26.6541C41.4808 34.4565 35.1485 40.7888 27.3462 40.7888C19.5438 40.7888 13.2115 34.4565 13.2115 26.6541C13.2115 18.8518 19.5438 12.5195 27.3462 12.5195" stroke="#7E6FFF" stroke-width="3" stroke-linecap="round" stroke-linejoin="round"/>
<path d="M34.4135 13.9326V19.5865H40.0673" stroke="#7E6FFF" stroke-width="3" stroke-linecap="round" stroke-linejoin="round"/>
<path d="M41.4808 12.5195L34.4135 19.5868" stroke="#7E6FFF" stroke-width="3" stroke-linecap="round" stroke-linejoin="round"/>
</svg>
