<svg width="54" height="54" viewBox="0 0 54 54" fill="none" xmlns="http://www.w3.org/2000/svg">
<circle cx="27" cy="27" r="27" fill="white"/>
<path d="M17.3389 39.0495L19.8407 40.986C20.1658 41.3111 20.8867 41.4665 21.3814 41.4665H24.4486C25.4239 41.4665 26.4698 40.7457 26.7101 39.7704L28.6466 33.8762C29.0565 32.7455 28.3215 31.7702 27.1059 31.7702H23.8691C23.3885 31.7702 22.9786 31.3602 23.0634 30.7948L23.4733 28.2082C23.6288 27.4874 23.1482 26.6675 22.4273 26.4273C21.7771 26.187 20.9715 26.5121 20.6464 26.9927L17.3389 31.9256" stroke="#7E6FFF" stroke-width="3" stroke-miterlimit="10"/>
<path d="M13.2115 39.0494V31.1341C13.2115 30.0033 13.6921 29.5933 14.8229 29.5933H15.6286C16.7593 29.5933 17.2399 30.0033 17.2399 31.1341V39.0494C17.2399 40.1802 16.7593 40.59 15.6286 40.59H14.8229C13.6921 40.59 13.2115 40.1943 13.2115 39.0494Z" stroke="#7E6FFF" stroke-width="3" stroke-linecap="round" stroke-linejoin="round"/>
<path d="M37.3535 15.643L34.8516 13.7066C34.5265 13.3815 33.8057 13.2261 33.311 13.2261H30.2437C29.2685 13.2261 28.2225 13.9469 27.9822 14.9222L26.0458 20.8164C25.6359 21.9471 26.3709 22.9224 27.5864 22.9224H30.8233C31.3038 22.9224 31.7137 23.3324 31.6289 23.8978L31.219 26.4844C31.0635 27.2052 31.5441 28.025 32.265 28.2653C32.9152 28.5056 33.7209 28.1805 34.0459 27.6999L37.3535 22.7669" stroke="#7E6FFF" stroke-width="3" stroke-miterlimit="10"/>
<path d="M41.4808 15.6432V23.5585C41.4808 24.6893 41.0002 25.0993 39.8694 25.0993H39.0637C37.933 25.0993 37.4524 24.6893 37.4524 23.5585V15.6432C37.4524 14.5124 37.933 14.1025 39.0637 14.1025H39.8694C41.0002 14.1025 41.4808 14.4983 41.4808 15.6432Z" stroke="#7E6FFF" stroke-width="3" stroke-linecap="round" stroke-linejoin="round"/>
</svg>
