<svg width="32" height="32" viewBox="0 0 32 32" fill="none" xmlns="http://www.w3.org/2000/svg">
<path d="M16 0C7.16342 0 0 7.16342 0 16C0 24.8366 7.16342 32 16 32C24.8366 32 32 24.8366 32 16C32 7.16342 24.8366 0 16 0ZM23.4163 10.8813C23.1755 13.4113 22.1336 19.5508 21.6034 22.3845C21.3791 23.5835 20.9374 23.9855 20.5099 24.0248C19.5809 24.1104 18.8752 23.4108 17.9753 22.8209C16.5671 21.8978 15.7715 21.3232 14.4046 20.4224C12.8249 19.3814 13.849 18.8095 14.7492 17.874C14.9848 17.6293 19.0787 13.9056 19.1579 13.5678C19.1678 13.5255 19.1773 13.3678 19.0835 13.285C18.9897 13.2021 18.8519 13.2302 18.7522 13.2527C18.611 13.2848 16.3614 14.7717 12.0033 17.7135C11.3648 18.1519 10.7864 18.3656 10.2682 18.3544C9.6969 18.3421 8.598 18.0314 7.78103 17.7658C6.77903 17.4401 5.98265 17.2679 6.052 16.7148C6.08813 16.4266 6.4849 16.132 7.24232 15.8309C11.9067 13.7987 15.0169 12.4589 16.5732 11.8115C21.0165 9.96335 21.9398 9.64232 22.5416 9.63161C22.674 9.62942 22.9699 9.66219 23.1616 9.81774C23.2891 9.92855 23.3704 10.0832 23.3894 10.251C23.4218 10.4595 23.4309 10.6709 23.4163 10.8813Z" fill="#7E6FFF"/>
</svg>
