<svg width="28" height="27" viewBox="0 0 28 27" fill="none" xmlns="http://www.w3.org/2000/svg">
<path d="M20.8707 4.66667C19.9374 4.66667 19.2707 5.33333 19.2707 6.26667C19.2707 7.2 19.9374 7.86667 20.8707 7.86667C21.804 7.86667 22.4707 7.2 22.4707 6.26667C22.4707 5.33333 21.804 4.66667 20.8707 4.66667ZM27.004 7.86667C27.004 6.8 26.7374 5.6 26.3374 4.66667C25.9374 3.73333 25.404 2.93333 24.7374 2.26667C24.0707 1.6 23.2707 1.06667 22.3374 0.666667C21.2707 0.266667 20.204 0 19.1374 0C17.9374 0 17.404 0 13.804 0C10.204 0 9.6707 -1.3411e-07 8.33737 0.133333C7.13737 0.133333 6.0707 0.266667 5.00403 0.666667C4.20403 1.06667 3.40403 1.6 2.73737 2.26667C2.0707 2.93333 1.53737 3.73333 1.13737 4.53333C0.73737 5.6 0.604036 6.66667 0.604036 7.86667C0.470703 9.2 0.470703 9.73333 0.470703 13.3333C0.470703 16.9333 0.470703 17.4667 0.604036 18.8C0.604036 19.8667 0.870703 21.0667 1.2707 22C1.53737 22.9333 2.0707 23.7333 2.73737 24.4C3.40403 25.0667 4.20403 25.6 5.13737 25.8667C6.20403 26.2667 7.2707 26.5333 8.33737 26.5333C9.6707 26.6667 10.204 26.6667 13.804 26.6667C17.404 26.6667 17.9374 26.6667 19.2707 26.5333C20.3374 26.5333 21.5374 26.2667 22.4707 25.8667C23.404 25.6 24.204 25.0667 24.8707 24.4C25.5374 23.7333 26.0707 22.9333 26.4707 22C26.8707 20.9333 27.004 19.8667 27.1374 18.8C27.1374 17.3333 27.2707 16.9333 27.2707 13.3333C27.2707 9.73333 27.1374 9.2 27.004 7.86667ZM24.604 18.6667C24.604 19.4667 24.4707 20.4 24.204 21.2C23.9374 21.7333 23.6707 22.2667 23.1374 22.6667C22.7374 23.0667 22.204 23.4667 21.6707 23.7333C20.8707 24 20.0707 24.1333 19.1374 24.1333C17.804 24.1333 17.2707 24.2667 13.804 24.2667C10.3374 24.2667 9.80403 24.2667 8.4707 24.1333C7.53737 24.1333 6.73737 24 5.93737 23.7333C5.40403 23.4667 4.8707 23.2 4.4707 22.6667C4.0707 22.2667 3.6707 21.7333 3.53737 21.2C3.13737 20.4 3.00403 19.6 3.00403 18.6667C3.00403 17.3333 2.8707 16.8 2.8707 13.3333C2.8707 9.86667 2.8707 9.33333 3.00403 8C3.00403 7.2 3.13737 6.26667 3.53737 5.46667C3.6707 4.93333 4.0707 4.4 4.4707 4C4.8707 3.6 5.40403 3.2 5.93737 2.93333C6.73737 2.66667 7.6707 2.53333 8.4707 2.53333C9.80403 2.53333 10.3374 2.4 13.804 2.4C17.2707 2.4 17.804 2.4 19.1374 2.53333C19.9374 2.53333 20.8707 2.66667 21.6707 2.93333C22.204 3.2 22.7374 3.46667 23.1374 4C23.5374 4.4 23.9374 4.93333 24.204 5.46667C24.4707 6.26667 24.604 7.2 24.604 8C24.604 9.33333 24.7374 9.86667 24.7374 13.3333C24.7374 16.8 24.7374 17.3333 24.604 18.6667ZM13.804 6.53333C10.0707 6.53333 7.00403 9.6 7.00403 13.3333C7.00403 17.0667 10.0707 20.1333 13.804 20.1333C17.5374 20.1333 20.604 17.0667 20.604 13.3333C20.604 9.6 17.6707 6.53333 13.804 6.53333ZM13.804 17.7333C11.404 17.7333 9.40403 15.7333 9.40403 13.3333C9.40403 10.9333 11.404 8.93333 13.804 8.93333C16.204 8.93333 18.204 10.9333 18.204 13.3333C18.204 15.7333 16.204 17.7333 13.804 17.7333Z" fill="#7E6FFF"/>
</svg>
