<svg width="24" height="23" viewBox="0 0 24 23" fill="none" xmlns="http://www.w3.org/2000/svg">
<path d="M5.82615 7.39844H1.20886C1.00394 7.39844 0.837891 7.56456 0.837891 7.76941V22.6028C0.837891 22.8077 1.00394 22.9737 1.20886 22.9737H5.82615C6.03107 22.9737 6.19711 22.8077 6.19711 22.6028V7.76941C6.19711 7.56456 6.03107 7.39844 5.82615 7.39844Z" fill="#7E6FFF"/>
<path d="M3.51754 0.0253906C1.8375 0.0253906 0.470703 1.3907 0.470703 3.06888C0.470703 4.74781 1.8375 6.11364 3.51754 6.11364C5.19624 6.11364 6.56192 4.74774 6.56192 3.06888C6.56199 1.3907 5.19624 0.0253906 3.51754 0.0253906Z" fill="#7E6FFF"/>
<path d="M17.5663 7.03125C15.7119 7.03125 14.341 7.82846 13.5095 8.73429V7.77089C13.5095 7.56604 13.3435 7.39992 13.1385 7.39992H8.71667C8.51175 7.39992 8.3457 7.56604 8.3457 7.77089V22.6043C8.3457 22.8092 8.51175 22.9752 8.71667 22.9752H13.3239C13.5288 22.9752 13.6948 22.8092 13.6948 22.6043V15.2652C13.6948 12.7921 14.3666 11.8286 16.0905 11.8286C17.9681 11.8286 18.1173 13.3732 18.1173 15.3924V22.6043C18.1173 22.8092 18.2833 22.9753 18.4883 22.9753H23.0972C23.3021 22.9753 23.4681 22.8092 23.4681 22.6043V14.468C23.4681 10.7906 22.7669 7.03125 17.5663 7.03125Z" fill="#7E6FFF"/>
</svg>
