<svg width="26" height="23" viewBox="0 0 26 23" fill="none" xmlns="http://www.w3.org/2000/svg">
<path d="M25.8374 3.13575C24.8841 3.57638 23.8758 3.86767 22.8442 4.00055C23.9326 3.30779 24.7483 2.21796 25.1398 0.933211C24.117 1.58189 22.9973 2.03893 21.8295 2.28446C21.0489 1.3826 20.0094 0.782271 18.874 0.577632C17.7387 0.372992 16.5717 0.575614 15.5561 1.15372C14.5404 1.73183 13.7336 2.65272 13.2622 3.77196C12.7907 4.89122 12.6814 6.14551 12.9511 7.33813C10.8831 7.2267 8.86001 6.65298 7.01361 5.65429C5.16719 4.6556 3.53861 3.25425 2.23369 1.54128C1.77599 2.39279 1.53549 3.35712 1.5361 4.33836C1.53448 5.24962 1.74439 6.14716 2.14713 6.95108C2.54987 7.75501 3.13296 8.44036 3.84448 8.94613C3.01749 8.92217 2.20818 8.68571 1.48537 8.25698V8.32454C1.49157 9.60132 1.91153 10.8367 2.6742 11.8215C3.43688 12.8064 4.49546 13.4804 5.67088 13.7296C5.21841 13.8762 4.74865 13.9536 4.27571 13.9593C3.94834 13.9552 3.62179 13.9236 3.2991 13.8647C3.63382 14.963 4.28157 15.9228 5.15223 16.6106C6.02288 17.2985 7.07313 17.68 8.15682 17.7022C6.32687 19.2363 4.06756 20.0735 1.73904 20.0804C1.31508 20.0819 0.891455 20.0548 0.470703 19.9993C2.84811 21.6347 5.61865 22.5029 8.44854 22.4992C10.4014 22.5208 12.3387 22.1275 14.1474 21.3426C15.956 20.5576 17.5996 19.3965 18.9823 17.9272C20.365 16.4579 21.4591 14.7097 22.2005 12.7849C22.942 10.86 23.316 8.7971 23.3007 6.71656C23.3007 6.48684 23.3007 6.24362 23.3007 6.0004C24.296 5.20966 25.1544 4.24029 25.8374 3.13575Z" fill="#7E6FFF"/>
</svg>
