<svg width="33" height="23" viewBox="0 0 33 23" fill="none" xmlns="http://www.w3.org/2000/svg">
<mask id="mask0_286_7404" style="mask-type:luminance" maskUnits="userSpaceOnUse" x="0" y="0" width="33" height="23">
<path d="M32.4707 0H0.470703V23H32.4707V0Z" fill="white"/>
</mask>
<g mask="url(#mask0_286_7404)">
<path fill-rule="evenodd" clip-rule="evenodd" d="M13.1374 15.7618V6.56176L21.804 11.1618L13.1374 15.7618ZM32.1374 4.93824C32.1374 4.93824 31.804 2.70588 30.8707 1.69118C29.6707 0.405882 28.2707 0.405882 27.6707 0.338235C23.204 0 16.4707 0 16.4707 0C16.4707 0 9.73737 0 5.2707 0.338235C4.6707 0.405882 3.2707 0.405882 2.0707 1.69118C1.0707 2.70588 0.804036 4.93824 0.804036 4.93824C0.804036 4.93824 0.470703 7.57647 0.470703 10.2824V12.7853C0.470703 15.4235 0.804036 18.0618 0.804036 18.0618C0.804036 18.0618 1.13737 20.2941 2.0707 21.3088C3.2707 22.5941 4.8707 22.5941 5.60403 22.7294C8.13737 22.9324 16.4707 23 16.4707 23C16.4707 23 23.204 23 27.6707 22.6618C28.2707 22.5941 29.6707 22.5941 30.8707 21.3088C31.804 20.2941 32.1374 18.0618 32.1374 18.0618C32.1374 18.0618 32.4707 15.4235 32.4707 12.7853V10.2824C32.4707 7.57647 32.1374 4.93824 32.1374 4.93824Z" fill="#7E6FFF"/>
</g>
</svg>
