<svg width="30" height="30" viewBox="0 0 30 30" fill="none" xmlns="http://www.w3.org/2000/svg">
<path d="M21.5684 18.1172C22.6816 16.3656 23.3348 14.2875 23.3348 12.0535C23.3348 5.81172 18.2805 0.75 12.0461 0.75C5.8043 0.75 0.75 5.81172 0.75 12.0535C0.75 18.2953 5.8043 23.357 12.0387 23.357C14.3023 23.357 16.4102 22.6891 18.1766 21.5461L18.6887 21.1898L26.7488 29.25L29.25 26.7043L21.1973 18.6441L21.5684 18.1172ZM18.3695 5.7375C20.0543 7.42227 20.982 9.66367 20.982 12.0461C20.982 14.4285 20.0543 16.6699 18.3695 18.3547C16.6848 20.0395 14.4434 20.9672 12.0609 20.9672C9.67852 20.9672 7.43711 20.0395 5.75234 18.3547C4.06758 16.6699 3.13984 14.4285 3.13984 12.0461C3.13984 9.66367 4.06758 7.42227 5.75234 5.7375C7.43711 4.05273 9.67852 3.125 12.0609 3.125C14.4434 3.125 16.6848 4.05273 18.3695 5.7375Z" fill="#6E3BFF"/>
</svg>
