<svg width="25" height="30" viewBox="0 0 25 30" fill="none" xmlns="http://www.w3.org/2000/svg">
<path d="M24.9474 14.0485C24.5265 16.882 23.2638 19.2957 21.2646 21.2896C20.1072 22.3391 19.055 23.4934 17.8975 24.5429C16.214 26.3269 14.5304 28.2159 12.8469 30C9.26932 26.3269 5.79699 23.1786 2.53512 19.7155C0.641121 17.6166 -0.0954331 14.888 0.00978881 12.0545C0.115011 5.96774 4.85 0.720522 10.7424 0.0908561C17.3714 -0.643754 23.0534 3.13424 24.7369 9.32596C25.1578 10.5853 24.9474 13.8386 24.9474 14.0485ZM12.5312 16.5671C14.7409 16.5671 16.6349 14.7831 16.6349 12.5792C16.6349 10.3754 14.7409 8.48641 12.6364 8.48641C10.532 8.48641 8.53277 10.3754 8.53277 12.4743C8.53277 14.6781 10.3215 16.5671 12.5312 16.5671Z" fill="#6E3BFF"/>
</svg>
