<svg width="31" height="30" viewBox="0 0 31 30" fill="none" xmlns="http://www.w3.org/2000/svg">
<g clip-path="url(#clip0_573_3880)">
<path d="M15.1992 0C6.92789 0 0.199219 6.72867 0.199219 15C0.199219 23.2713 6.92789 30 15.1992 30C23.4706 30 30.1992 23.2713 30.1992 15C30.1992 6.72867 23.4706 0 15.1992 0ZM22.333 22.7586C22.0892 23.0024 21.7693 23.1251 21.4493 23.1251C21.1293 23.1251 20.8091 23.0024 20.5656 22.7586L14.3155 16.5088C14.0804 16.2751 13.9493 15.9574 13.9493 15.6251V7.5C13.9493 6.80878 14.5091 6.25008 15.1992 6.25008C15.8893 6.25008 16.4491 6.80878 16.4491 7.5V15.1076L22.333 20.9912C22.8217 21.4801 22.8217 22.27 22.333 22.7586Z" fill="#6E3BFF"/>
</g>
<defs>
<clipPath id="clip0_573_3880">
<rect width="30" height="30" fill="white" transform="translate(0.199219)"/>
</clipPath>
</defs>
</svg>
