<svg width="31" height="30" viewBox="0 0 31 30" fill="none" xmlns="http://www.w3.org/2000/svg">
<g clip-path="url(#clip0_573_3889)">
<path d="M30.3347 5.95898L21.2363 14.9988L30.3347 24.0386C30.4992 23.6948 30.599 23.3147 30.599 22.9089V7.08861C30.599 6.68273 30.4992 6.30275 30.3347 5.95898Z" fill="#6E3BFF"/>
<path d="M27.9636 4.45312H3.23705C2.83117 4.45312 2.45119 4.55291 2.10742 4.71738L13.7361 16.2875C14.7643 17.3157 16.4363 17.3157 17.4646 16.2875L29.0932 4.71738C28.7495 4.55291 28.3695 4.45312 27.9636 4.45312Z" fill="#6E3BFF"/>
<path d="M0.863867 5.95898C0.699395 6.30275 0.599609 6.68273 0.599609 7.08861V22.9089C0.599609 23.3148 0.699395 23.6948 0.863867 24.0386L9.96225 14.9988L0.863867 5.95898Z" fill="#6E3BFF"/>
<path d="M19.9949 16.2422L18.7074 17.5297C16.9942 19.2429 14.2064 19.2429 12.4932 17.5297L11.2058 16.2422L2.10742 25.282C2.45119 25.4464 2.83117 25.5462 3.23705 25.5462H27.9636C28.3695 25.5462 28.7495 25.4464 29.0932 25.282L19.9949 16.2422Z" fill="#6E3BFF"/>
</g>
<defs>
<clipPath id="clip0_573_3889">
<rect width="30" height="30" fill="white" transform="translate(0.599609)"/>
</clipPath>
</defs>
</svg>
