<svg width="31" height="30" viewBox="0 0 31 30" fill="none" xmlns="http://www.w3.org/2000/svg">
<path d="M25.6168 18.7406C24.5669 17.6516 23.202 17.6516 22.1084 18.7406C21.2859 19.5596 20.4723 20.3699 19.6498 21.1889C19.4223 21.4154 19.2386 21.4589 18.9674 21.3283C18.4687 21.0146 17.8737 20.7881 17.375 20.4657C15.004 18.9672 13.0004 17.0591 11.2244 14.8897C10.3582 13.8006 9.58826 12.668 9.03706 11.3524C8.94957 11.0823 8.94957 10.9429 9.17705 10.7164C10.0432 9.94099 10.8131 9.13072 11.6356 8.31175C12.773 7.17912 12.773 5.86353 11.6356 4.7309C10.9531 4.05132 10.3144 3.41531 9.67575 2.77929C8.99332 2.09972 8.35462 1.42014 7.67219 0.784127C6.62229 -0.261376 5.25741 -0.261376 4.16376 0.784127C3.34134 1.6031 2.52766 2.41337 1.70524 3.23235C0.926563 4.00776 0.524101 4.91386 0.42786 5.95065C0.287872 7.63217 0.699084 9.26141 1.29403 10.8471C2.52766 14.1579 4.39124 17.0156 6.62229 19.6903C9.67575 23.3234 13.3154 26.1811 17.5588 28.2199C19.4748 29.126 21.4347 29.8491 23.5257 29.9885C25.0306 30.0756 26.308 29.6749 27.3491 28.5335C28.0315 27.7145 28.854 27.035 29.5802 26.2683C30.6738 25.1356 30.6738 23.7765 29.5802 22.6874C28.259 21.3718 26.9379 20.0562 25.6168 18.7406Z" fill="#6E3BFF"/>
</svg>
