<svg width="71" height="71" viewBox="0 0 71 71" fill="none" xmlns="http://www.w3.org/2000/svg">
<circle cx="35.5" cy="35.5" r="35.5" fill="#3D3866"/>
<path fill-rule="evenodd" clip-rule="evenodd" d="M50.233 20.2008C49.9422 20.1031 47.576 20.1115 45.6534 20.217C43.1524 20.3544 41.2219 20.6868 40.0298 21.1852C39.6112 21.3602 39.5716 21.3953 37.3504 23.5568C34.7953 26.0432 34.8999 25.9665 33.557 26.3399C31.7876 26.8318 29.6843 26.8696 26.8927 26.4597C25.2179 26.2138 24.4948 26.2455 23.6563 26.6016C23.2556 26.7718 23.1778 26.8399 21.4655 28.519C20.0878 29.87 19.6801 30.2998 19.6459 30.4377C19.5529 30.8118 19.6195 30.8952 21.557 32.8328L23.3582 34.634L23.8679 34.1242L24.3776 33.6145L22.9398 32.1767L21.502 30.7388L22.8549 29.4273C24.0174 28.3004 24.2531 28.0973 24.5288 27.9847C24.9055 27.8307 25.8277 27.839 26.9038 28.0059C28.8103 28.3017 30.4209 28.38 31.861 28.247C32.2449 28.2116 32.5677 28.2121 32.5782 28.2483C32.5887 28.2845 30.5971 30.3145 28.1523 32.7593L23.7072 37.2043L23.7079 37.5077L23.7086 37.811L24.8758 39.0246L26.043 40.2382L25.6099 40.6391C24.9076 41.2893 23.3649 42.4597 22.4533 43.0341C21.0932 43.891 19.5408 44.531 18.6977 44.5825L18.4712 44.5963L18.6369 44.2028C19.4311 42.3169 18.3563 39.9916 16.3197 39.1895C15.6077 38.9091 14.7401 38.857 14.04 39.0527C13.4082 39.2292 13.2634 39.33 13.1782 39.6522C13.1012 39.9435 13.1755 40.2072 13.3955 40.4233C13.687 40.7096 13.9018 40.7397 14.5303 40.5822C15.2134 40.411 15.677 40.4691 16.2306 40.7954C16.8781 41.177 17.2914 41.837 17.3408 42.5684C17.3888 43.2803 17.1851 43.6374 16.2914 44.4078C15.9957 44.6625 15.9586 44.8722 16.1385 45.2691C16.2689 45.5568 16.443 45.6746 17.0938 45.9152C17.6292 46.1131 18.554 46.2031 19.1797 46.1181C21.1724 45.8473 23.6457 44.4836 26.393 42.1405L27.2559 41.4047L28.4659 42.6147L29.676 43.8248L29.1916 44.383C25.8319 48.2545 24.3761 51.8812 25.2535 54.193C25.4372 54.677 25.654 54.9226 25.9714 55.0063C26.3166 55.0974 26.6285 54.9565 26.8129 54.6262C27.5274 53.3469 29.4686 53.4666 30.2778 54.8398C30.6108 55.4048 30.6738 55.9202 30.4868 56.5485C30.3136 57.1299 30.3537 57.3847 30.6675 57.6985C30.8806 57.9116 31.2107 57.9832 31.4979 57.8786C31.6669 57.8171 31.7326 57.7518 31.8367 57.5422C32.062 57.0884 32.1637 56.5797 32.1435 56.0071L32.1239 55.4514L32.5609 55.3673C33.4115 55.2035 34.5364 55.4382 35.3581 55.9509C35.8414 56.2525 36.5119 56.9229 36.8134 57.4062C37.6598 58.7626 37.6413 60.4979 36.7684 61.6231C36.356 62.1546 36.3197 62.3984 36.5901 62.8203C36.7366 63.0489 37.1336 63.2282 37.4032 63.1874C37.8935 63.1132 38.6933 61.8323 38.9103 60.7736C39.0275 60.2024 38.9374 58.6896 38.751 58.0969C38.0575 55.8916 36.0749 54.1686 33.8234 53.8147C33.225 53.7206 32.3821 53.7523 31.8394 53.8893L31.5018 53.9746L31.1494 53.5713C29.9908 52.2457 28.2497 51.8237 26.7171 52.497C26.5959 52.5501 26.589 52.5383 26.6012 52.2966C26.6184 51.9565 26.8984 50.9946 27.1555 50.3927C27.743 49.0171 28.9706 47.1734 30.4825 45.3958L30.8338 44.9826L31.9611 46.1099L33.0884 47.2372L33.4232 47.2569L33.758 47.2766L38.2382 42.7964C40.7641 40.2705 42.7315 38.3427 42.7484 38.377C42.7649 38.4105 42.7557 38.7072 42.728 39.0363C42.5952 40.6152 42.653 41.9757 42.9322 43.837C43.1104 45.026 43.146 45.9021 43.0313 46.2795C42.8996 46.7128 42.5702 47.1171 41.3724 48.3155L40.2258 49.4627L38.7401 47.9769L37.2543 46.4912L36.7446 47.0009L36.2348 47.5106L38.0881 49.3639C40.1028 51.3786 40.1571 51.4216 40.5614 51.3203C40.8367 51.2515 43.7564 48.3342 44.0811 47.8037C44.7447 46.7192 44.8077 46.101 44.4841 43.8491C44.0123 40.5668 44.2013 38.0681 45.0606 36.2252C45.2032 35.9192 45.485 35.608 47.4166 33.623L49.6105 31.3684L49.8306 30.8148C50.36 29.4829 50.6802 27.3683 50.7951 24.4436C50.8561 22.8883 50.8454 20.9547 50.7746 20.7457C50.6993 20.5233 50.4518 20.2744 50.233 20.2008ZM49.2539 23.8164C49.1589 26.7862 48.8212 29.1113 48.327 30.1977C48.1478 30.5919 48.1086 30.6322 40.7312 38.0096L33.3154 45.4253L29.431 41.5409L25.5465 37.6564L33.0555 30.1747L40.5645 22.693L41.1008 22.5071C42.494 22.0243 45.3075 21.7097 48.4055 21.6905L49.2734 21.6851L49.2818 22.1833C49.2864 22.4573 49.2739 23.1922 49.2539 23.8164ZM43.148 26.3938C42.9484 26.265 42.6096 26.0931 42.3953 26.0119C41.9543 25.8448 41.1592 25.7507 40.8591 25.83C40.392 25.9535 40.2029 26.4628 40.4596 26.9059C40.6572 27.2469 40.9284 27.379 41.378 27.353C42.1191 27.3104 43.1223 28.0545 43.4788 28.9113C43.5755 29.1438 43.6374 29.4371 43.621 29.5853C43.5909 29.8588 43.6923 30.2231 43.8398 30.3706C44.004 30.5348 44.4377 30.6639 44.6428 30.6097C44.9034 30.5408 45.0753 30.3704 45.143 30.1139C45.2222 29.8147 45.1285 29.0191 44.9624 28.581C44.6602 27.7834 43.9217 26.8932 43.148 26.3938ZM35.2819 34.9779C35.1547 34.9554 34.9482 34.9887 34.823 35.0519C34.6707 35.1289 33.9231 35.8498 32.5617 37.2325L30.5281 39.2981L30.547 39.62C30.5627 39.8854 30.606 39.9819 30.7941 40.17C31.0551 40.431 31.3168 40.4909 31.6616 40.3685C31.9834 40.2543 35.8359 36.4017 35.9529 36.077C36.1118 35.6365 35.7615 35.0628 35.2819 34.9779ZM14.9143 33.3291C13.0971 31.9461 10.721 31.688 8.94022 32.6802C8.00969 33.1987 7.73234 33.6109 7.96813 34.1253C8.11123 34.4376 8.37666 34.6184 8.71011 34.6309C8.91836 34.6387 9.06204 34.5781 9.3712 34.352C10.1353 33.7935 10.8215 33.5933 11.7676 33.653C12.4328 33.6949 13.1049 33.9106 13.6711 34.2639C14.1552 34.566 14.8303 35.2414 15.1039 35.6973C15.599 36.5224 15.8206 36.6942 16.2796 36.6088C17.164 36.444 16.9232 35.4206 15.6772 34.0485C15.4529 33.8015 15.1096 33.4779 14.9143 33.3291Z" fill="white"/>
</svg>
