<svg width="155" height="76" viewBox="0 0 155 76" fill="none" xmlns="http://www.w3.org/2000/svg">
<path d="M55.5659 1C22.2435 47.4494 4.06762 72.8926 2.28522 74.4302C1.69994 74.9351 1.00771 72.9385 1.00006 71.4009C0.959147 63.1775 22.2741 42.4618 34.376 31.8668C35.843 30.5826 38.1856 30.5893 39.9833 31.0866C43.7185 32.1197 46.3709 35.6688 49.4231 37.4512C52.2804 39.1197 59.0848 33.1903 76.4115 30.574C80.024 30.0286 81.5445 32.0887 81.5675 32.8613C81.5904 33.6339 80.0758 34.1388 80.3053 34.3989C85.5318 40.3223 102.413 26.5502 112.901 22.1746C118.979 19.6389 133.991 19.3595 143.753 21.8839C181.018 31.5215 96.3851 45.3534 93.0727 48.4057C91.5954 49.767 91.275 51.4579 92.0247 51.2284C98.8942 44.3742 105.519 36.7244 109.849 32.1422C111.654 30.0844 112.664 28.5698 115.234 25.4793" stroke="#7E6FFF" stroke-width="2" stroke-linecap="round"/>
</svg>
