<svg width="139" height="59" viewBox="0 0 139 59" fill="none" xmlns="http://www.w3.org/2000/svg">
<path d="M1 46.3253C23.6472 33.7783 38.4489 23.8636 44.1739 17.0555C49.2849 10.9777 51.1045 5.17165 50.9943 1.96786C50.9532 0.773468 49.1264 0.878573 47.99 1.2582C45.8142 1.98505 43.6997 4.85417 39.6678 10.7157C32.5423 21.075 26.1204 36.2733 20.3207 50.1999C17.8013 56.2496 16.1725 60.2461 18.3672 56.0473C27.0042 39.5232 34.3777 26.7135 37.471 27.5445C44.5413 29.4438 50.0874 31.6909 59.7946 30.5238C61.92 30.2682 62.8524 29.9405 62.9151 30.0362C62.9779 30.1319 62.1276 30.5564 60.6837 32.1047C59.2398 33.653 57.2279 36.3121 57.7775 39.4265" stroke="#7E6FFF" stroke-width="2" stroke-linecap="round"/>
<path d="M56.9399 38.0299C64.2406 28.9574 66.8822 26.0429 67.8945 24.3932C68.4023 23.5657 68.7785 22.6875 67.5466 22.0599C63.7753 20.1382 58.3141 21.2029 54.4193 22.6261C50.9213 23.9043 49.3896 27.3663 48.2314 29.9313C47.1034 32.4294 47.6919 35.3547 49.1331 38.2232C51.007 41.9532 55.7452 43.5572 59.1093 44.6599C64.5498 46.4432 74.3855 40.999 85.7951 32.7607C90.2836 29.5198 91.0785 25.3771 92.0813 23.9806C92.1371 23.903 91.4233 25.3331 91.5059 26.1161C91.8868 29.7316 99.8596 26.7777 107.978 23.3478C110.116 22.4441 111.519 21.2037 112.375 19.8464C113.231 18.489 113.413 16.8702 112.597 15.1265C110.719 11.1125 104.858 8.20303 101.584 6.72673C91.738 2.28762 127.376 13.6115 136.511 14.7849C127.547 22.3938 115.908 33.414 113.951 37.3923C113.199 39.4835 112.939 41.7216 112.392 44.8545" stroke="#7E6FFF" stroke-width="2" stroke-linecap="round"/>
</svg>
