<svg width="110" height="75" viewBox="0 0 110 75" fill="none" xmlns="http://www.w3.org/2000/svg">
<path d="M46.7894 4.31397C46.5067 4.90659 46.224 5.49922 41.8676 13.9443C37.5111 22.3895 29.0896 38.6691 23.9163 49.6137C18.743 60.5583 17.0733 65.6744 15.7896 68.9276C14.506 72.1809 13.659 73.4161 13.1929 73.8561C12.7268 74.296 12.6672 73.9032 12.9004 70.1587C13.1337 66.4141 13.6618 59.3297 14.3727 54.8192C15.374 48.4668 18.0395 45.2846 20.8148 42.0912C24.0695 38.3461 27.7418 36.2905 30.159 35.3895C32.1717 34.6392 33.7483 35.0335 34.7273 35.3949C35.8414 35.8063 38.3889 38.5433 42.0321 42.3551C44.5848 45.026 45.5443 47.8507 46.0492 50.4954C46.468 52.6884 45.7314 55.0203 43.9457 58.1271C41.2607 62.7986 37.2412 65.5395 33.4678 67.1716C30.9547 68.2586 26.8604 68.9075 23.0066 69.365C19.1527 69.8225 15.5698 69.8225 11.8675 69.3747C8.16515 68.9269 4.452 68.0314 2.45972 66.978C0.467436 65.9246 0.308538 64.7405 3.27857 59.432C6.24861 54.1236 12.3524 44.7266 16.1593 38.5754C19.9663 32.4242 21.2915 29.8035 21.9741 28.077C22.6568 26.3504 22.6568 25.5975 22.8602 25.2311C23.1949 24.6282 27.0054 24.8449 32.7914 24.3756C37.6753 23.9794 42.3536 21.4351 45.7195 19.8508C46.3123 19.5718 43.0716 23.1619 40.919 26.2624C39.627 28.1234 39.8022 30.7863 40.6974 34.2427C42.18 39.967 46.29 42.7084 47.2061 44.919C47.6468 45.9823 45.2697 47.5264 42.0493 49.1176C38.4473 50.8974 35.2435 51.4503 33.7496 51.9753C33.1914 52.1715 33.2412 52.6543 33.4952 52.7642C33.7492 52.8742 34.2576 52.7063 38.0883 50.8654C41.919 49.0244 49.0565 45.5153 53.0122 43.4547C56.9678 41.3941 57.5253 40.8884 57.8542 40.144C58.1831 39.3996 58.2665 38.4319 58.1832 37.7657C57.8472 35.0778 52.846 34.8675 52.2681 34.3048C50.2232 32.314 51.9877 27.5607 50.2567 22.8248C49.3686 20.3953 56.2292 17.7125 60.159 15.6061C61.9147 14.6651 66.5947 11.8083 70.6207 10.088C71.1588 9.85801 71.4955 9.698 74.1023 8.60541C76.7092 7.51283 81.5792 5.49979 84.2559 4.31659C86.9326 3.13338 87.2685 2.84102 87.5357 2.54574C87.803 2.25045 87.9913 1.9611 87.8632 1.69615C87.5317 1.01058 86.1253 0.960612 84.8315 1.01705C83.7413 1.06461 81.9949 2.49582 78.1962 6.97175C75.5123 10.1342 71.8959 15.5908 69.0154 20.0892C66.135 24.5877 64.2543 28.0866 62.5053 32.1179C60.7563 36.1492 59.196 40.6069 57.4522 46.9653C55.7084 53.3236 53.8285 61.4477 52.7911 65.7991C51.7538 70.1505 51.616 70.4831 51.188 70.2035C49.8113 69.3042 49.1652 67.2544 48.9456 65.5651C48.7276 63.8881 49.0514 62.6079 50.4889 60.1987C51.7014 58.1666 54.0744 54.5999 56.3401 51.86C58.6058 49.1201 60.7382 47.343 65.5165 45.0502C70.2948 42.7574 77.6543 40.0027 78.9138 38.1289C81.5405 34.221 70.3267 34.3357 71.9264 33.9483C73.092 33.634 74.9761 33.0805 81.2257 30.67C87.4752 28.2595 98.033 24.0088 109 19.5392" stroke="#7E6FFF" stroke-width="2" stroke-linecap="round"/>
</svg>
