<svg width="24" height="22" viewBox="0 0 24 22" fill="none" xmlns="http://www.w3.org/2000/svg">
<path d="M13.3394 0.106445C8.15443 0.106445 3.82279 3.82757 2.87317 8.73937H0L4.4783 16.5495L8.9566 8.73937H6.32627C7.20738 5.69682 10.0168 3.46517 13.3395 3.46517C17.3657 3.46517 20.6414 6.74082 20.6414 10.767C20.6414 14.7933 17.3657 18.0689 13.3395 18.0689C12.2551 18.0689 11.2122 17.8374 10.2396 17.3806L8.81173 20.4207C10.2344 21.0889 11.7577 21.4276 13.3394 21.4276C19.2176 21.4275 24 16.6451 24 10.7669C24 4.88871 19.2176 0.106445 13.3394 0.106445Z" fill="white"/>
</svg>
